<svg xmlns="http://www.w3.org/2000/svg" viewBox="0 0 500 500"><g id="freepik--Floor--inject-133"><path id="freepik--floor--inject-133" d="M103.65,446.93C186.19,491,320,491,402.57,446.93s82.55-115.56,0-159.64-216.38-44.08-298.92,0S21.1,402.85,103.65,446.93Z" style="fill:#f5f5f5"></path></g><g id="freepik--Shadows--inject-133"><ellipse id="freepik--Shadow--inject-133" cx="185.25" cy="372.46" rx="25.48" ry="14.71" style="fill:#e0e0e0"></ellipse><ellipse id="freepik--shadow--inject-133" cx="349.91" cy="421.27" rx="47.18" ry="27.24" style="fill:#e0e0e0"></ellipse><ellipse id="freepik--shadow--inject-133" cx="117.46" cy="395.35" rx="25.48" ry="14.71" style="fill:#e0e0e0"></ellipse></g><g id="freepik--Tree--inject-133"><g id="freepik--Pine--inject-133"><path d="M357.73,325.74V422a3.9,3.9,0,0,1-2.29,3.19,12.22,12.22,0,0,1-11.05,0A3.88,3.88,0,0,1,342.1,422V325.74Z" style="fill:#9a4a4d"></path><path d="M298.13,375.54l48.41-116.9h6.74l48.41,116.91a6.18,6.18,0,0,1-4.51,8.43l-.79.16a6.19,6.19,0,0,0-4.94,6.83h0a6.18,6.18,0,0,1-7.95,6.68l-2.39-.74a6.21,6.21,0,0,0-7.46,3.36l-2.4,5.31a6.2,6.2,0,0,1-8.79,2.77l-9.39-5.57a6.16,6.16,0,0,0-6.31,0l-9.39,5.57a6.2,6.2,0,0,1-8.79-2.77l-2.41-5.31a6.2,6.2,0,0,0-7.45-3.36l-2.4.74a6.18,6.18,0,0,1-7.95-6.68h0a6.19,6.19,0,0,0-4.93-6.83l-.8-.16A6.19,6.19,0,0,1,298.13,375.54Z" style="fill:#0060B7"></path><path d="M298.13,375.54l48.41-116.9h6.74l48.41,116.91a6.18,6.18,0,0,1-4.51,8.43l-.79.16a6.19,6.19,0,0,0-4.94,6.83h0a6.18,6.18,0,0,1-7.95,6.68l-2.39-.74a6.21,6.21,0,0,0-7.46,3.36l-2.4,5.31a6.2,6.2,0,0,1-8.79,2.77l-9.39-5.57a6.16,6.16,0,0,0-6.31,0l-9.39,5.57a6.2,6.2,0,0,1-8.79-2.77l-2.41-5.31a6.2,6.2,0,0,0-7.45-3.36l-2.4.74a6.18,6.18,0,0,1-7.95-6.68h0a6.19,6.19,0,0,0-4.93-6.83l-.8-.16A6.19,6.19,0,0,1,298.13,375.54Z" style="opacity:0.1"></path><path d="M308.93,341.55,346.54,254h6.74l38.55,87.58c1.39,2.82.6,6.17-2.5,6.68a4.68,4.68,0,0,0-3.89,5.16l.1.89a4.68,4.68,0,0,1-6.31,4.92l-2.39-.92a4.68,4.68,0,0,0-5.94,2.47l-3,6.66a4.68,4.68,0,0,1-6.66,2.12l-9-5.35a4.68,4.68,0,0,0-4.79,0l-8,5.35a4.68,4.68,0,0,1-6.67-2.11l-3-6.67a4.67,4.67,0,0,0-5.93-2.47l-2.4.92a4.68,4.68,0,0,1-6.31-4.92l.11-.89a4.68,4.68,0,0,0-3.89-5.16h0C308.33,347.72,307.54,344.36,308.93,341.55Z" style="fill:#0060B7"></path><path d="M318.3,307.1l28.27-59.43.22-.36a3.59,3.59,0,0,1,6.24,0l.23.37,28.27,59.42A4.22,4.22,0,0,1,380,313l-.21.12a4.22,4.22,0,0,0-2.14,4,4.21,4.21,0,0,1-5.27,4.44l-1.63-.44a4.22,4.22,0,0,0-4.79,2.09l-2.24,4.18a4.22,4.22,0,0,1-5.67,1.75l-6.19-3.24a4.2,4.2,0,0,0-3.9,0l-6.19,3.24a4.2,4.2,0,0,1-5.66-1.75l-2.25-4.18a4.22,4.22,0,0,0-4.78-2.09l-1.64.44a4.21,4.21,0,0,1-5.27-4.44h0a4.21,4.21,0,0,0-2.14-4l-.21-.12A4.21,4.21,0,0,1,318.3,307.1Z" style="fill:#0060B7"></path><path d="M318.3,307.1l28.27-59.43.22-.36a3.59,3.59,0,0,1,6.24,0l.23.37,28.27,59.42A4.22,4.22,0,0,1,380,313l-.21.12a4.22,4.22,0,0,0-2.14,4,4.21,4.21,0,0,1-5.27,4.44l-1.63-.44a4.22,4.22,0,0,0-4.79,2.09l-2.24,4.18a4.22,4.22,0,0,1-5.67,1.75l-6.19-3.24a4.2,4.2,0,0,0-3.9,0l-6.19,3.24a4.2,4.2,0,0,1-5.66-1.75l-2.25-4.18a4.22,4.22,0,0,0-4.78-2.09l-1.64.44a4.21,4.21,0,0,1-5.27-4.44h0a4.21,4.21,0,0,0-2.14-4l-.21-.12A4.21,4.21,0,0,1,318.3,307.1Z" style="fill:#fff;opacity:0.4"></path><path d="M353.82,425.65a7.47,7.47,0,0,1,14.94,0v.42a3.84,3.84,0,0,1-2.18,2.85,11.71,11.71,0,0,1-10.57,0,3.86,3.86,0,0,1-2.19-2.85v-.42Z" style="fill:#37474f"></path><path d="M356,428.92a3.86,3.86,0,0,1-2.19-2.85v-.42a7.47,7.47,0,0,1,3.89-6.34c0,.07-3.72,4.69-1,7.77,1.88,2.13,8.33,2.52,11.16.84a5.94,5.94,0,0,1-1.29,1A11.71,11.71,0,0,1,356,428.92Z" style="fill:#263238"></path><path d="M365.9,429.41a5.28,5.28,0,0,1,10.55,0v.3a2.71,2.71,0,0,1-1.54,2,8.26,8.26,0,0,1-7.47,0,2.73,2.73,0,0,1-1.54-2,1.13,1.13,0,0,1,0-.3Z" style="fill:#455a64"></path><path d="M367.44,431.72a2.73,2.73,0,0,1-1.54-2,1.13,1.13,0,0,1,0-.3,5.4,5.4,0,0,1,.35-1.75c-.13,2.26.95,3.64,4.28,4.06s5.51-1,5.8-1.5a3.1,3.1,0,0,1-1.42,1.5A8.26,8.26,0,0,1,367.44,431.72Z" style="fill:#37474f"></path><path d="M334.74,425.25a5.28,5.28,0,0,1,10.55,0,1.13,1.13,0,0,1,0,.3,2.71,2.71,0,0,1-1.54,2,8.3,8.3,0,0,1-7.46,0,2.72,2.72,0,0,1-1.55-2v-.3Z" style="fill:#455a64"></path><path d="M336.29,427.56a2.72,2.72,0,0,1-1.55-2v-.3a5.41,5.41,0,0,1,.36-1.75c-.13,2.26.94,3.64,4.27,4.06s5.52-1,5.8-1.5a3.1,3.1,0,0,1-1.42,1.5A8.3,8.3,0,0,1,336.29,427.56Z" style="fill:#37474f"></path></g></g><g id="freepik--Helicopter--inject-133"><path d="M243.93,94.52l25.74-14.86h0a7,7,0,0,1,.81,11.62L256.8,102Z" style="fill:#0060B7"></path><path d="M243.93,94.52l25.74-14.86h0a7,7,0,0,1,.81,11.62L256.8,102Z" style="opacity:0.2"></path><path d="M343,217a1.59,1.59,0,0,0-1.58,1.59,2.71,2.71,0,0,1-4.06,2.34l-8.07-4.66,2.16-20a1.58,1.58,0,0,0-3.15-.34l-2,18.57-35.37-20.42,9.77-27a1.58,1.58,0,1,0-3-1.08l-9.57,26.42-17.67-10.2a1.58,1.58,0,1,0-1.59,2.74l66.9,38.62a5.78,5.78,0,0,0,5.87,0,5.81,5.81,0,0,0,2.94-5.08A1.59,1.59,0,0,0,343,217Z" style="fill:#455a64"></path><path d="M218.18,79.66,205.31,49.93,192.44,42.5l6.43,40.88L186,105.67h12.87l12.87-11.15L289,157.7s17.86,26.85,43.72,41.65,58.81,10.63,68.69,4.93,9.54-30.06-7.28-50.3S352,119.75,334,116.82c-16.78-2.74-51.49-7.43-51.49-7.43Z" style="fill:#0060B7"></path><path d="M313,146.55c-3.62,2.26-1.5,19.9,5.95,28.45s32.57,22.35,37.69,18S350,164,342,156.81,319,142.83,313,146.55Z" style="fill:#455a64"></path><path d="M407.86,185.77c-.69-9.56-5-21.23-13.75-31.79a107.48,107.48,0,0,0-10.8-11.17c-2.74,3.42-8.24,7.79-18.82,10a9.15,9.15,0,0,0-7.18,10.6,71.54,71.54,0,0,0,3.8,13.63c4,9.76,10.72,15.21,18,16.76C385.2,195.11,399.33,194.48,407.86,185.77Z" style="fill:#455a64"></path><path d="M243.93,109.39l-19.57,8.51a21.19,21.19,0,0,1-19.05-1.08h0L231.05,102Z" style="fill:#0060B7"></path><path d="M243.93,109.39l-19.57,8.51a21.19,21.19,0,0,1-19.05-1.08h0L231.05,102Z" style="opacity:0.2"></path><path d="M338.93,113.16h-7.56V128h0a1.86,1.86,0,0,0,1.11,1.54,5.91,5.91,0,0,0,5.34,0,1.86,1.86,0,0,0,1.11-1.54h0Z" style="fill:#37474f"></path><path d="M332.48,114.7a5.91,5.91,0,0,0,5.34,0c1.48-.85,1.48-2.23,0-3.09a5.91,5.91,0,0,0-5.34,0C331,112.47,331,113.85,332.48,114.7Z" style="fill:#455a64"></path><ellipse cx="335.15" cy="113.16" rx="119.62" ry="69.06" style="fill:#f5f5f5;opacity:0.30000000000000004"></ellipse><path d="M335.15,183c-30.78,0-61.55-6.76-85-20.29-22.85-13.2-35.43-30.78-35.43-49.53s12.58-36.32,35.43-49.52c46.86-27.05,123.1-27.05,170,0,22.85,13.19,35.43,30.77,35.43,49.52S443,149.49,420.13,162.68C396.71,176.2,365.92,183,335.15,183Zm0-138.07c-30.49,0-61,6.7-84.19,20.1-22.34,12.9-34.64,30-34.64,48.15s12.3,35.26,34.64,48.15c46.42,26.81,122,26.81,168.38,0,22.34-12.9,34.64-30,34.64-48.15S441.68,77.9,419.34,65C396.13,51.61,365.64,44.9,335.15,44.9Z" style="fill:#e0e0e0"></path><path d="M400,123.24a.81.81,0,0,1-.31-.06.79.79,0,0,1-.42-1c5.5-12.86-1-26.16-17.29-35.59a.79.79,0,0,1,.79-1.37c16.84,9.72,23.71,24.12,18,37.58A.8.8,0,0,1,400,123.24Z" style="fill:#e0e0e0"></path><g style="opacity:0.1"><path d="M287.88,141.24a.79.79,0,0,1-.39-.11c-13.72-7.92-21-18.93-19.87-30.22a.8.8,0,0,1,.87-.71.79.79,0,0,1,.71.86c-1,10.64,5.92,21.1,19.08,28.7a.79.79,0,0,1,.29,1.08A.81.81,0,0,1,287.88,141.24Z"></path></g><path d="M262.67,72.1a.79.79,0,0,1-.4-1.48c30.26-17.46,75.1-22.36,114.25-12.44a.78.78,0,0,1,.58,1,.79.79,0,0,1-1,.57C337.36,49.9,293,54.72,263.06,72A.7.7,0,0,1,262.67,72.1Z" style="fill:#e0e0e0"></path><path d="M372.66,169a.79.79,0,0,1-.18-1.56,124.47,124.47,0,0,0,34.76-13.16c19.94-11.52,30.71-27.41,29.54-43.6a.78.78,0,0,1,.73-.85.81.81,0,0,1,.85.74c1.22,16.82-9.84,33.25-30.33,45.08A125.83,125.83,0,0,1,372.83,169,.52.52,0,0,1,372.66,169Z" style="fill:#e0e0e0"></path><path d="M205.31,49.93,192.44,42.5l6.43,40.88c1.37-13.25,19.31-3.72,19.31-3.72Z" style="opacity:0.1"></path><polygon points="186 105.67 198.87 105.67 211.75 94.53 198.87 83.38 186 105.67" style="opacity:0.1"></polygon></g><g id="freepik--Clouds--inject-133"><g id="freepik--clouds--inject-133"><path d="M115.12,72.09l-7.41,4.28a8.18,8.18,0,0,0,.06-1V73.24c0-3.82-2.68-5.37-6-3.46a11.6,11.6,0,0,0-3.57,3.43c-.54-4.8-4.31-6.59-8.89-3.95-4.95,2.86-9,9.81-9,15.53V88a8.51,8.51,0,0,0,.76,3.72L75,95.28A7.36,7.36,0,0,0,71.63,101c0,2.11,1.49,3,3.32,1.91l40.17-23.19A7.33,7.33,0,0,0,118.45,74C118.45,71.89,117,71,115.12,72.09Z" style="fill:#ebebeb"></path><path d="M146.84,93.69l-5.59,3.22a6.12,6.12,0,0,0,0-.74V94.55c0-2.88-2-4-4.52-2.61a8.81,8.81,0,0,0-2.69,2.59c-.41-3.62-3.26-5-6.71-3a15,15,0,0,0-6.77,11.72v2.43a6.46,6.46,0,0,0,.57,2.8l-4.64,2.69a5.52,5.52,0,0,0-2.51,4.34c0,1.6,1.12,2.25,2.51,1.45l30.31-17.5a5.54,5.54,0,0,0,2.51-4.35C149.35,93.53,148.23,92.89,146.84,93.69Z" style="fill:#ebebeb"></path></g></g><g id="freepik--character-2--inject-133"><path d="M166.2,268.47c-1.54,0-2.93,1.39-2.93,5.4s-.32,7.21,2.14,7.21Z" style="fill:#0060B7"></path><path d="M166.2,268.47c-1.54,0-2.93,1.39-2.93,5.4s-.32,7.21,2.14,7.21Z" style="opacity:0.1"></path><path d="M170.29,298.15l13.1-.9a6.08,6.08,0,0,0,4.88-5.74V268.12c0-2.7-1.61-4.11-4.88-4l-13.1.9a6.07,6.07,0,0,0-4.88,5.74v23.39A4,4,0,0,0,170.29,298.15Z" style="fill:#0060B7"></path><g id="freepik--character-boy--inject-133"><circle cx="185.71" cy="250.62" r="6.69" style="fill:#263238"></circle><path d="M201.27,258.65c-.79,1.77-3.31,7.85-5.12,11s-3.48,5.78-5,8.12c-5.69-3-4.44-9-4.44-11.23,3.5-.6,8.12-10.09,8.59-11.2a11,11,0,0,0,.7-1.89c.16-.89,1.13-8.39.75-11.72a2.34,2.34,0,0,0-.81-1.53,14.69,14.69,0,0,1-2.4-3.24c-.64-1-1.27-1.29-1.13-1.53a1.32,1.32,0,0,1,1.76-.3,9.39,9.39,0,0,1,1.72,1.35,12.06,12.06,0,0,0-1.36-3.66c-1.47-2.62-1.31-4,2.47-3.42,2.37.39,4,2.17,4.88,7.7a48.57,48.57,0,0,1,.24,6c0,4.65.24,8.14,0,11.34A9.92,9.92,0,0,1,201.27,258.65Z" style="fill:#ffa8a7"></path><path d="M191.36,278.1a113,113,0,0,0,7.15-11.82c2.63-5.34,3.62-7.94,4.08-10.82.29-1.89-.2-13.28-.2-13.28s-3.66.73-5.86,0c0,0-.29,9.62-1.08,11.75s-4.41,9.28-6.84,11.28-2.9,1.64-2.9,1.64Z" style="fill:#37474f"></path><path d="M170,299.86c0,4.5-.58,31.76-.58,31.76-.11,1.3-1.32,3.69-1.06,8.66.36,6.75.61,24.36.61,24.36s2.89,2.7,6,.51c0,0,3.92-24.85,4.76-31.54.74-5.84,2-21.71,2-21.71l2.61,22s-.77,4.39-.94,7.49,2.08,18.7,2.08,18.7,2.87,1.79,5.6.33c0,0,2-24,2.52-26.79S192,299.86,192,299.86Z" style="fill:#0060B7"></path><path d="M170,299.86c0,4.5-.58,31.76-.58,31.76-.11,1.3-1.32,3.69-1.06,8.66.36,6.75.61,24.36.61,24.36s2.89,2.7,6,.51c0,0,3.92-24.85,4.76-31.54.74-5.84,2-21.71,2-21.71l2.61,22s-.77,4.39-.94,7.49,2.08,18.7,2.08,18.7,2.87,1.79,5.6.33c0,0,2-24,2.52-26.79S192,299.86,192,299.86Z" style="opacity:0.4"></path><path d="M174.53,267.32a5.15,5.15,0,0,0-4.14,3.95,16.82,16.82,0,0,0-.39,3.58v25c3.31,3.6,14.82,5.27,22,0,0,0,0-22.43-.57-26.06-.94-6.31-4.07-8.22-7.1-8l-7.27,1Z" style="fill:#e6e6e6"></path><path d="M174.15,255.38a56.7,56.7,0,0,0,1.52,5.93,2.3,2.3,0,0,0,1.33,1.07l-.08-3.58Z" style="fill:#263238"></path><path d="M175.51,248.08a2.51,2.51,0,0,0-2.08.73c-.89.91-.39,3.77.72,6.57l2,.23Z" style="fill:#263238"></path><path d="M176.8,255.61c-.41.25-1-.54-1.5-1.07a1.77,1.77,0,0,0-3,.49c-.84,1.76.73,4.09,2,4.5,2.24.7,2.57-.73,2.57-.73l.18,8.06a7.17,7.17,0,0,0,5.42,4.12c4,.54,3.15-2.73,1.85-4.33V264.2a14.45,14.45,0,0,0,3,.15c1.64-.25,2.68-1.55,3.18-3.33.8-2.86,1.1-5.17.42-10.79-.74-6.16-7.91-6.23-11.78-3.79S176.8,255.61,176.8,255.61Z" style="fill:#ffa8a7"></path><path d="M176.8,256.3c-.2,0-1-1.29-1.5-1.76-.7-.64.21-6.46.21-6.46a2.75,2.75,0,0,1,.68-2.94c1-1.07,2.58-1.18,5.34-1.62,1.45-.22,3.65-.63,5.09-.9,1.73-.32,3.16-.66,4.38.4a3.06,3.06,0,0,1,.85,3.43,3,3,0,0,1-.49.73,2.85,2.85,0,0,1-1.25.86s-.75.67-3.37,1a40.09,40.09,0,0,1-7.26-.14c-.76-.11-.92.63-1.33,2.64C177.79,253.3,177.49,256.29,176.8,256.3Z" style="fill:#263238"></path><path d="M175.51,248.53,173,247.21a1.36,1.36,0,0,1,1.87-.62A1.46,1.46,0,0,1,175.51,248.53Z" style="fill:#263238"></path><path d="M184.36,264.2a27.6,27.6,0,0,1-5-1.43,4.11,4.11,0,0,1-1.77-1.75,5.82,5.82,0,0,0,1,2.07c.94,1.2,5.72,2.08,5.72,2.08Z" style="fill:#f28f8f"></path><path d="M183.48,254.7a.75.75,0,0,1-.73.76.76.76,0,0,1-.74-.77.74.74,0,1,1,1.47,0Z" style="fill:#263238"></path><path d="M182.7,251.92l-1.57.87a1,1,0,0,1,.36-1.26A.88.88,0,0,1,182.7,251.92Z" style="fill:#263238"></path><path d="M184,259.78l1.68.63a.88.88,0,0,1-1.14.55A.94.94,0,0,1,184,259.78Z" style="fill:#f28f8f"></path><path d="M190,252.53l-1.43-1.1a.86.86,0,0,1,1.24-.2A1,1,0,0,1,190,252.53Z" style="fill:#263238"></path><path d="M189.6,254.49a.74.74,0,1,1-.74-.77A.75.75,0,0,1,189.6,254.49Z" style="fill:#263238"></path><polygon points="185.85 253.79 186.09 258.21 188.4 257.43 185.85 253.79" style="fill:#f28f8f"></polygon><path d="M181.73,311.9a17.49,17.49,0,0,0,6.56-3.76,13.58,13.58,0,0,1-5,4.57l1.08,21.21Z" style="opacity:0.2"></path></g><path d="M161.36,306.45a52,52,0,0,0,.61,6.39c1.2,5.5,2.95,7.19,5.35,7.45,3.83.4,3.91-1,2.28-3.58a12.45,12.45,0,0,1-1.58-3.6,9.74,9.74,0,0,0,1.8,1.26,1.32,1.32,0,0,0,1.75-.41c.13-.25-.52-.54-1.22-1.46a14.33,14.33,0,0,0-2.6-3.11,2.66,2.66,0,0,1-.72-1.62c-.17-.78.29-14.91,1.08-17.43l3.63-9.95c2.76-1.74,6-10.76,1.95-12.86-3.85.29-6.84,5.2-11.6,20.53C161.24,290.78,161.09,302.22,161.36,306.45Z" style="fill:#ffa8a7"></path><path d="M174.54,267.34a4.93,4.93,0,0,1,1.52,3.78c0,2.59-1.27,5.3-2.67,8.39-1,2.3-2.63,6.26-4.1,9.61A28.16,28.16,0,0,0,168,295.5l-.69,11.64c-.36.91-4.79,1.26-6.34-.91-.3-4.18.11-17.12.73-19.35,0,0,5.46-14.91,8.42-17.91A5.34,5.34,0,0,1,174.54,267.34Z" style="fill:#37474f"></path><path d="M168.32,356.41c.24,3.43.78,7,.34,9.41-.36,2-.86,3.92-.59,4.77s1.85,2,2.43,3,2.26,4.61,6.43,5.47,5.87-.74,6-2-2.91-3.51-4.52-5.1a9.45,9.45,0,0,1-2.8-7.63c.33-4.12,1-7.84,1-7.84s-.14-.29-.25-.36l-.07.4c-1.54,1.23-5.85,1.06-7.49-.29l0-.32S168.29,356.11,168.32,356.41Z" style="fill:#0060B7"></path><path d="M168.32,356.41c.24,3.43.78,7,.34,9.41-.36,2-.86,3.92-.59,4.77s1.85,2,2.43,3,2.26,4.61,6.43,5.47,5.87-.74,6-2-2.91-3.51-4.52-5.1a9.45,9.45,0,0,1-2.8-7.63c.33-4.12,1-7.84,1-7.84s-.14-.29-.25-.36l-.07.4c-1.54,1.23-5.85,1.06-7.49-.29l0-.32S168.29,356.11,168.32,356.41Z" style="opacity:0.2"></path><path d="M184.32,353.66c.63,3.38,1.36,6.92,1.19,9.37-.13,2-.68,3-.38,4.58.17.88,2.41,2,3.11,2.9s2.77,4.32,7,4.7,5.74-1.42,5.76-2.71-3.29-3.16-5.07-4.54-3.75-3.36-3.7-6.84c0-3.64-.08-8.19-.08-8.19s-.29-.24-.41-.31l0,.4c-1.48.69-5.28,1.28-7.11.66l-.05-.34S184.3,353.46,184.32,353.66Z" style="fill:#0060B7"></path><path d="M184.32,353.66c.63,3.38,1.36,6.92,1.19,9.37-.13,2-.68,3-.38,4.58.17.88,2.41,2,3.11,2.9s2.77,4.32,7,4.7,5.74-1.42,5.76-2.71-3.29-3.16-5.07-4.54-3.75-3.36-3.7-6.84c0-3.64-.08-8.19-.08-8.19s-.29-.24-.41-.31l0,.4c-1.48.69-5.28,1.28-7.11.66l-.05-.34S184.3,353.46,184.32,353.66Z" style="opacity:0.2"></path><path d="M173.18,267.37s1.74.88,2,4.84c.36,5.09-2.58,12.43-5.49,16.42v5.31a38.06,38.06,0,0,0,7.57-13.41c2.09-7.29,1.58-10.75-.63-13.59A6.09,6.09,0,0,0,173.18,267.37Z" style="fill:#0060B7"></path><g style="opacity:0.2"><path d="M173.18,267.37s1.74.88,2,4.84c.36,5.09-2.58,12.43-5.49,16.42v5.31a38.06,38.06,0,0,0,7.57-13.41c2.09-7.29,1.58-10.75-.63-13.59A6.09,6.09,0,0,0,173.18,267.37Z"></path></g><path d="M184.36,265.8s4.75,1.74,6.6,5.61a6,6,0,0,0-2.21-4.81A4.52,4.52,0,0,0,184.36,265.8Z" style="fill:#0060B7"></path><path d="M184.36,265.8s4.75,1.74,6.6,5.61a6,6,0,0,0-2.21-4.81A4.52,4.52,0,0,0,184.36,265.8Z" style="opacity:0.2"></path><path d="M181.32,223.91a8.71,8.71,0,0,1,6.3-4.51c4.49-.67,7.63-.12,9.49-2.55s.78-4.35.78-4.35a6.54,6.54,0,0,1,3.09,6.4c-.28,4.11-4.51,5.53-6.53,6.27-1.56.58-4.57,3.5-4.45,5.88Z" style="fill:#0060B7"></path><path d="M209.17,247.42a.58.58,0,0,1-.37-.13l-30-24.66a.58.58,0,0,1-.08-.82.58.58,0,0,1,.82-.08l29.95,24.65a.59.59,0,0,1,.08.83A.57.57,0,0,1,209.17,247.42Z" style="fill:#37474f"></path></g><g id="freepik--character-1--inject-133"><path d="M132.88,279c-.79,1.77-3.32,7.85-5.12,11s-3.48,5.79-5,8.13c-5.69-3-4.44-9-4.44-11.24,3.5-.59,8.12-10.08,8.59-11.2a11.32,11.32,0,0,0,.7-1.88c.16-.89,1.13-8.39.75-11.73a2.39,2.39,0,0,0-.81-1.53,13.67,13.67,0,0,1-2.4-3.24c-.64-1-1.28-1.28-1.13-1.52a1.31,1.31,0,0,1,1.76-.3,9.39,9.39,0,0,1,1.72,1.35,12.4,12.4,0,0,0-1.36-3.66c-1.48-2.62-1.31-4,2.47-3.42,2.37.39,4,2.17,4.88,7.7a50.52,50.52,0,0,1,.24,6c0,4.64.24,8.13,0,11.34A9.92,9.92,0,0,1,132.88,279Z" style="fill:#ffa8a7"></path><path d="M96.12,288.43c-1.54,0-2.93,1.39-2.93,5.4S92.88,301,95.33,301Z" style="fill:#0060B7"></path><path d="M96.12,288.43c-1.54,0-2.93,1.39-2.93,5.4S92.88,301,95.33,301Z" style="opacity:0.1"></path><path d="M100.21,318.11l13.11-.9a6.08,6.08,0,0,0,4.87-5.74V288.08c0-2.7-1.61-4.11-4.87-4l-13.11.9a6.07,6.07,0,0,0-4.88,5.74v23.39A4,4,0,0,0,100.21,318.11Z" style="fill:#0060B7"></path><g id="freepik--Character--inject-133"><path d="M112,262.46h1.81A10.18,10.18,0,0,1,124,272.63v0a10.92,10.92,0,0,1-10.92,10.92h-.34a10.92,10.92,0,0,1-10.92-10.92v0A10.18,10.18,0,0,1,112,262.46Z" style="fill:#263238"></path><path d="M102.31,316.18c-3.87,8.44.14,38.16.14,38.16-.12,1.37-1.69,4.06-2.27,10.09-.69,7.12,1.08,25,1.08,25a5.4,5.4,0,0,0,5,.2s4.75-26.93,5.64-34c.78-6.18,2.28-19.76,2.28-19.76l4.25,19.73a37.06,37.06,0,0,0-1.35,6.1c-.4,4.16,3.63,23.55,3.63,23.55a11.11,11.11,0,0,0,5,.15s1.42-25.73,1.8-30.74c.63-8.43-1.61-34.72-3.15-39.71Z" style="fill:#37474f"></path><path d="M114.22,335.86l1.25-7.84s5.31-1.1,7.71-3.36a13.71,13.71,0,0,1-6.27,4.17l-1.41,6L118,353.13Z" style="fill:#263238"></path><path d="M109.18,287h0c-5,.34-5.36,2.58-6.6,5.19a8.51,8.51,0,0,0-.23,6.39l3.45,10s-1.62,3.91-3.49,7.6c8.66,4.83,19.47,2.29,22.08-1.24.11-.74-.56-6.59-1-10.42,1.52-3.82,1.93-6.25,1.28-8.78a15.83,15.83,0,0,0-1.53-3.6c-1.93-3.6-5.08-5.73-6.59-5.61Z" style="fill:#f5f5f5"></path><path d="M101.3,267l1.5,2.41a1.37,1.37,0,0,1-2-.4A1.49,1.49,0,0,1,101.3,267Z" style="fill:#263238"></path><path d="M120.37,266.94c1.17.69,2.61,3.64,2.47,9.81-.12,5.23-1.82,6.52-2.67,6.9s-2.49.14-4.09-.12v3.14s2.21,2.56,2.07,4-3.19,1.78-5.25.37a13.32,13.32,0,0,1-3.08-3.08,1.69,1.69,0,0,1-.31-1V279.9a2,2,0,0,1-2.84.27,3.76,3.76,0,0,1-.81-5.11c1-1,3.24-.71,3.65.73a12.67,12.67,0,0,0,5.94-1.77A9.54,9.54,0,0,0,120.37,266.94Z" style="fill:#ffa8a7"></path><path d="M116.41,275.43a.66.66,0,1,1-.69-.65A.68.68,0,0,1,116.41,275.43Z" style="fill:#263238"></path><path d="M117.17,279.87l1.53.49a.78.78,0,0,1-1,.55A.86.86,0,0,1,117.17,279.87Z" style="fill:#f28f8f"></path><path d="M121.81,273.41l-1.33-.92a.78.78,0,0,1,1.1-.23A.85.85,0,0,1,121.81,273.41Z" style="fill:#263238"></path><path d="M121.5,275a.66.66,0,1,1-.69-.65A.67.67,0,0,1,121.5,275Z" style="fill:#263238"></path><polygon points="118.29 274.58 118.39 278.54 120.48 277.9 118.29 274.58" style="fill:#f28f8f"></polygon><path d="M116.08,283.53c-1.68-.22-5.14-1.22-5.68-2.59a3.57,3.57,0,0,0,1.21,1.75c1,.89,4.47,1.88,4.47,1.88Z" style="fill:#f28f8f"></path><path d="M111.34,317.12a5.24,5.24,0,0,1-3.9-6.38,2.12,2.12,0,0,1,.09-.27,1.7,1.7,0,0,1,1.75-1.17h0a5,5,0,0,1-2.16-3.22l-1.06-6.26a7.39,7.39,0,0,1,.27-3l-3.48-4-.65.45a8.68,8.68,0,0,0,.15,5.4l3.45,10s-1.62,3.91-3.49,7.6a22.35,22.35,0,0,0,18.5,1.22A25.15,25.15,0,0,1,111.34,317.12Z" style="fill:#e0e0e0"></path><path d="M93.44,311.72c4.5-18.38,7.82-24.51,13.29-24.44,1.59,1.9,1.15,7.66-1.37,11.16,0,0-5.62,11.85-6.52,16.07-.78,3.7-1.68,8.36-1.62,11.54a2.26,2.26,0,0,0,.63,1.51c1,1.12,1,2,1.69,3.24.52,1,1.09,1.33.93,1.54a1.25,1.25,0,0,1-1.69.13,6.53,6.53,0,0,1-1.28-1.23,13,13,0,0,0,1,3.41c1.15,2.6.87,3.93-2.64,3-2.2-.58-3.58-2.41-3.91-7.7a40.09,40.09,0,0,1-.06-5.85A102.42,102.42,0,0,1,93.44,311.72Z" style="fill:#ffa8a7"></path></g><path d="M96.12,284.05h0a6.68,6.68,0,0,0,6.68-6.67v-7.69h0a6.68,6.68,0,0,0-6.68,6.67Z" style="fill:#263238"></path><path d="M105.76,287.33s1.37.75,1.66,4.72c.37,5.09-2.06,11.19-4.69,13.43V310s5.1-4.24,6.82-9.57,1.85-10.54-.37-13.38A5.41,5.41,0,0,0,105.76,287.33Z" style="fill:#0060B7"></path><path d="M105.76,287.33s1.37.75,1.66,4.72c.37,5.09-2.06,11.19-4.69,13.43V310s5.1-4.24,6.82-9.57,1.85-10.54-.37-13.38A5.41,5.41,0,0,0,105.76,287.33Z" style="opacity:0.2"></path><path d="M116.58,286.53s4.74,1.74,6.59,5.61a6,6,0,0,0-2.21-4.81A4.5,4.5,0,0,0,116.58,286.53Z" style="fill:#0060B7"></path><path d="M116.58,286.53s4.74,1.74,6.59,5.61a6,6,0,0,0-2.21-4.81A4.5,4.5,0,0,0,116.58,286.53Z" style="opacity:0.2"></path><path d="M100.17,378.35c.23,3.43.82,7.25.37,9.66-.36,2-.86,3.93-.59,4.78s1.85,2,2.43,3,2.27,4.61,6.43,5.47,5.87-.74,6-2-2.91-3.52-4.52-5.1a9.49,9.49,0,0,1-2.8-7.64c.33-4.11.89-7.9.89-7.9s0-.22-.15-.3l-.07.4c-1.54,1.23-6.17,1.06-7.82-.29l0-.33S100.14,378.05,100.17,378.35Z" style="fill:#0060B7"></path><path d="M100.17,378.35c.23,3.43.82,7.25.37,9.66-.36,2-.86,3.93-.59,4.78s1.85,2,2.43,3,2.27,4.61,6.43,5.47,5.87-.74,6-2-2.91-3.52-4.52-5.1a9.49,9.49,0,0,1-2.8-7.64c.33-4.11.89-7.9.89-7.9s0-.22-.15-.3l-.07.4c-1.54,1.23-6.17,1.06-7.82-.29l0-.33S100.14,378.05,100.17,378.35Z" style="opacity:0.2"></path><path d="M118.68,375.85c.63,3.38,1.36,6.93,1.2,9.37-.14,2-.69,3-.39,4.59.17.87,2.41,2,3.11,2.9s2.77,4.32,7,4.69,5.75-1.41,5.77-2.7-3.3-3.16-5.08-4.55-3.75-3.35-3.7-6.84-.08-8.18-.08-8.18-.07-.2-.19-.27l0,.4c-1.48.69-5.54,1.23-7.37.62l-.06-.33S118.66,375.65,118.68,375.85Z" style="fill:#0060B7"></path><path d="M118.68,375.85c.63,3.38,1.36,6.93,1.2,9.37-.14,2-.69,3-.39,4.59.17.87,2.41,2,3.11,2.9s2.77,4.32,7,4.69,5.75-1.41,5.77-2.7-3.3-3.16-5.08-4.55-3.75-3.35-3.7-6.84-.08-8.18-.08-8.18-.07-.2-.19-.27l0,.4c-1.48.69-5.54,1.23-7.37.62l-.06-.33S118.66,375.65,118.68,375.85Z" style="opacity:0.2"></path><path d="M129.3,244.84l-3.75,1.78h0a.6.6,0,0,0-.27.46l-.86,5.73a2,2,0,0,0,.57,1.62l9,8.36a.54.54,0,0,0,.57.17h0l3.77-1.79-.36-.13s0,0,0,0l-2.27-4.24a2,2,0,0,0-.57-1.63c-1.77-1.64-4.09-8.2-5.86-9.84a.66.66,0,0,0-.17-.12Z" style="fill:#263238"></path><path d="M131.46,248.72a14.08,14.08,0,0,0-2.18-3.42.88.88,0,0,0-.17-.12l.16-.36-3.72,1.8h0a.6.6,0,0,0-.27.46l-.86,5.73a1.87,1.87,0,0,0,0,.62c2.28-1.2,6.66-3.6,6.66-3.6S131.26,249.39,131.46,248.72Z" style="fill:#455a64"></path><path d="M137.65,261l-9-8.36a2.06,2.06,0,0,1-.57-1.62l.87-5.72c.08-.54.46-.67.85-.3l9,8.35a2.09,2.09,0,0,1,.56,1.63l-.86,5.72C138.43,261.24,138.05,261.38,137.65,261Z" style="fill:#37474f"></path><path d="M134.31,256.15l-.42-.39a3.21,3.21,0,0,1-.89-2.55h0c.31-2,1.8-2.56,3.31-1.15l.41.38a3.27,3.27,0,0,1,.9,2.55h0C137.31,257,135.82,257.55,134.31,256.15Z" style="fill:#263238"></path><path d="M136.71,256.28h0a.16.16,0,0,1-.13-.17l.33-2.17a.16.16,0,0,1,.17-.13.15.15,0,0,1,.12.17l-.33,2.18A.14.14,0,0,1,136.71,256.28Z" style="fill:#455a64"></path><path d="M136,256.25h0a.15.15,0,0,1-.13-.16l.46-3a.14.14,0,0,1,.16-.12.14.14,0,0,1,.12.17l-.45,3A.14.14,0,0,1,136,256.25Z" style="fill:#455a64"></path><path d="M135.21,256.23h0a.16.16,0,0,1-.13-.17l.58-3.83a.15.15,0,1,1,.29.05l-.58,3.82A.14.14,0,0,1,135.21,256.23Z" style="fill:#455a64"></path><path d="M134.42,255.33h0a.16.16,0,0,1-.13-.17l.46-3a.14.14,0,0,1,.16-.12.15.15,0,0,1,.13.16l-.46,3A.14.14,0,0,1,134.42,255.33Z" style="fill:#455a64"></path><path d="M133.63,254.43h0a.14.14,0,0,1-.12-.17l.33-2.17a.14.14,0,1,1,.28,0l-.32,2.18A.16.16,0,0,1,133.63,254.43Z" style="fill:#455a64"></path><path d="M130.07,248.5h0a1,1,0,0,1-.28-.81h0c.09-.65.57-.82,1.05-.37,0,0,0,0,0,0a1,1,0,0,1,.28.81h0C131,248.78,130.55,249,130.07,248.5Z" style="fill:#0060B7"></path><path d="M126.35,250.85a.26.26,0,0,1-.2-.08l-6.94-6.45a.29.29,0,0,1,0-.41.3.3,0,0,1,.42,0l6.94,6.44a.31.31,0,0,1,0,.42A.3.3,0,0,1,126.35,250.85Z" style="fill:#263238"></path><circle cx="119.41" cy="244.11" r="0.69" style="fill:#263238"></circle><path d="M135.5,249.38a.29.29,0,0,1-.31-.24l-.63-3.31a.3.3,0,0,1,.23-.35.3.3,0,0,1,.34.24l.63,3.31a.29.29,0,0,1-.23.34Z" style="fill:#e0e0e0"></path><path d="M142.82,252.83h0l-3.37-.11a.3.3,0,0,1-.28-.31.29.29,0,0,1,.3-.28l3.37.12a.3.3,0,0,1,.29.3A.29.29,0,0,1,142.82,252.83Z" style="fill:#e0e0e0"></path><path d="M137.57,249.56a.21.21,0,0,1-.11,0,.29.29,0,0,1-.2-.35l.87-3.26a.29.29,0,1,1,.56.15l-.87,3.26A.28.28,0,0,1,137.57,249.56Z" style="fill:#e0e0e0"></path><path d="M139.1,250.83a.32.32,0,0,1-.28-.13.3.3,0,0,1,.09-.4l2.83-1.84a.29.29,0,0,1,.41.09.3.3,0,0,1-.09.4l-2.83,1.84A.33.33,0,0,1,139.1,250.83Z" style="fill:#e0e0e0"></path></g></svg>